IKResults
version=1
nRows=32
nColumns=11
inDegrees=yes

Units are S.I. units (second, meters, Newtons, ...)
If the header above contains a line with 'inDegrees', this indicates whether rotational values are in degrees (yes) or radians (no).

endheader
time	pelvis_tilt	pelvis_tx	pelvis_ty	hip_flexion_r	knee_angle_r	ankle_angle_r	hip_flexion_l	knee_angle_l	ankle_angle_l	lumbar_extension
     14.30000000	    -10.52668504	     -0.40406154	      0.90113843	      1.34975316	    -13.65814046	     22.23388335	     38.32519575	    -18.99949556	      4.29963163	      0.50510536
     14.33333333	    -11.31600043	     -0.36100136	      0.89356043	      0.01128128	    -15.60808089	     23.22814134	     38.66328562	    -14.20863638	      1.84082955	      1.74873141
     14.36666667	    -12.50262911	     -0.31691455	      0.88632558	      0.23076004	    -19.81369002	     23.38667352	     39.82585536	    -13.15391767	      1.05150297	      3.79488588
     14.40000000	    -14.42328102	     -0.27151177	      0.87947834	      2.68687581	    -26.58418664	     22.18267609	     41.94614606	    -15.16851379	      1.80527431	      7.07652761
     14.43333333	    -16.75374036	     -0.22493764	      0.87382098	      7.07045839	    -35.41892222	     19.02298510	     44.34220314	    -19.04401835	      3.61912972	     11.04080270
     14.46666667	    -18.24844263	     -0.17828453	      0.87171865	     11.82003819	    -44.98250631	     13.95504432	     45.18158930	    -22.96879430	      5.80474005	     13.84492016
     14.50000000	    -18.05588502	     -0.13271472	      0.87472493	     15.68963149	    -53.85892685	      8.40173332	     43.21784027	    -25.51551564	      7.99662199	     14.19559641
     14.53333333	    -16.42817372	     -0.08889430	      0.88219327	     18.66184307	    -61.18935943	      4.30443627	     38.71664139	    -26.16103506	      9.95158485	     12.36506955
     14.56666667	    -14.21786736	     -0.04689533	      0.89196212	     21.43414522	    -66.55383798	      2.78459026	     32.81643533	    -25.08870615	     11.54911718	      9.56250248
     14.60000000	    -12.55635588	     -0.00637491	      0.90106229	     25.01288680	    -69.61877410	      4.01630391	     27.01721284	    -22.80690370	     12.79670519	      7.40205989
     14.63333333	    -12.36730283	      0.03315061	      0.90683326	     30.07852780	    -69.92673814	      7.38167641	     22.56332942	    -19.87860421	     13.82963729	      7.15337433
     14.66666667	    -13.40932255	      0.07196350	      0.90877032	     35.87637232	    -66.90622056	     11.41521446	     19.35869442	    -16.70742048	     14.75045363	      8.51464331
     14.70000000	    -15.85379348	      0.11048542	      0.90607345	     42.09391768	    -60.48868949	     14.03048974	     17.73494803	    -13.73396464	     15.65213564	     11.59156730
     14.73333333	    -18.47986858	      0.14887801	      0.90035814	     47.08447150	    -51.25755554	     13.96198420	     16.50464578	    -11.25148361	     16.63619280	     14.78814039
     14.76666667	    -20.12416892	      0.18760405	      0.89347130	     49.61180051	    -40.43704975	     11.35894528	     14.46830658	     -9.36774869	     17.74671990	     16.65879387
     14.80000000	    -20.62650469	      0.22750487	      0.88612979	     49.95019800	    -29.76602366	      7.34900592	     11.42923825	     -8.09138913	     18.89434707	     17.11340489
     14.83333333	    -20.59697770	      0.26928754	      0.87837081	     49.44664065	    -21.07162656	      3.32968159	      8.11795943	     -7.66222503	     19.93776015	     17.04007152
     14.86666667	    -20.41349891	      0.31306456	      0.87094469	     48.94824265	    -15.47308031	      0.38552839	      5.31284266	     -8.81687726	     20.82079644	     16.90250466
     14.90000000	    -20.06722407	      0.35844917	      0.86514714	     48.40440759	    -13.00087084	     -1.04727462	      3.63472348	    -12.65545963	     21.36456533	     16.54868767
     14.93333333	    -19.46234629	      0.40483863	      0.86182001	     47.41375267	    -12.89943242	     -1.03312430	      3.51982307	    -19.91003799	     20.86061220	     15.75314528
     14.96666667	    -18.54704557	      0.45167333	      0.86114843	     45.71297523	    -14.32514735	      0.15772592	      4.94010195	    -29.93202916	     17.97174767	     14.48006148
     15.00000000	    -17.31600718	      0.49847267	      0.86293021	     43.22805063	    -16.54809147	      2.23321309	      7.48730454	    -41.03675035	     12.20625654	     12.81846698
     15.03333333	    -15.71318347	      0.54483516	      0.86707150	     39.84901016	    -18.86791692	      4.80195331	     10.48192221	    -51.28224800	      5.09662269	     10.78520745
     15.06666667	    -13.78481155	      0.59027884	      0.87337586	     35.53973517	    -20.60638591	      7.41911859	     13.59808400	    -59.67095665	     -0.52470613	      8.47262598
     15.10000000	    -11.71500618	      0.63435286	      0.88130646	     30.45951573	    -21.32797756	      9.74493563	     16.94379385	    -66.01180425	     -2.83525559	      6.10208433
     15.13333333	     -9.79995302	      0.67682055	      0.88983601	     24.96710901	    -20.89054094	     11.62900948	     20.71679713	    -70.02359323	     -1.73254632	      3.99881094
     15.16666667	     -8.34520751	      0.71747429	      0.89753119	     19.57611255	    -19.49139206	     13.05878829	     24.89062165	    -71.11215484	      1.86044077	      2.44660816
     15.20000000	     -7.54179712	      0.75609001	      0.90304819	     14.79366093	    -17.58254824	     14.08860394	     29.13559101	    -68.68907756	      6.35927861	      1.54870785
     15.23333333	     -7.47218863	      0.79287089	      0.90549756	     11.03349529	    -15.76757541	     14.96137714	     32.99631854	    -62.59901020	      9.93019240	      1.29107228
     15.26666667	     -8.10046501	      0.82886480	      0.90466814	      8.37796787	    -14.42081746	     16.02901886	     36.00098885	    -53.20117441	     11.18530774	      1.61415223
     15.30000000	     -9.39081292	      0.86576848	      0.90057976	      6.70348985	    -13.65862249	     17.58933615	     37.89110251	    -41.27597911	      9.65988364	      2.60395526
     15.33333333	    -10.68424807	      0.90508885	      0.89415186	      5.11899534	    -13.38417921	     19.72810437	     38.33300721	    -28.54407435	      5.71087375	      3.67782514
